<?xml version="1.0" standalone="no"?>
<!DOCTYPE svg PUBLIC "-//W3C//DTD SVG 20010904//EN"
 "http://www.w3.org/TR/2001/REC-SVG-20010904/DTD/svg10.dtd">
<svg version="1.0" xmlns="http://www.w3.org/2000/svg"
 width="5000.000000pt" height="1417.000000pt" viewBox="0 0 5000.000000 1417.000000"
 preserveAspectRatio="xMidYMid meet">

<g transform="translate(0.000000,1417.000000) scale(0.100000,-0.100000)"
fill="#000000" stroke="none">
<path d="M7195 13709 c-303 -29 -618 -140 -880 -311 -295 -193 -550 -471 -695
-759 -74 -146 -143 -354 -176 -530 -25 -132 -30 -430 -10 -573 130 -930 877
-1625 1822 -1696 578 -44 1155 183 1559 612 286 303 438 600 505 986 26 149
36 404 21 541 -68 618 -431 1165 -984 1481 -351 200 -755 287 -1162 249z"/>
<path d="M33153 13481 c-210 -72 -389 -414 -474 -905 -57 -331 -50 -841 16
-1188 79 -415 244 -740 426 -834 45 -24 66 -28 129 -28 62 0 84 4 128 27 105
55 182 150 267 329 121 257 183 543 205 946 28 517 -57 1015 -233 1357 -105
204 -237 316 -370 315 -23 -1 -65 -9 -94 -19z"/>
<path d="M41688 10998 c-2 -1388 -7 -2265 -12 -2253 -5 11 -38 83 -73 160
-268 590 -593 948 -935 1033 -80 20 -217 26 -298 12 -450 -75 -836 -535 -1150
-1370 -272 -725 -421 -1516 -492 -2615 -18 -273 -18 -1392 0 -1655 73 -1091
236 -1907 529 -2650 123 -313 306 -664 435 -835 56 -75 173 -207 226 -255 288
-266 633 -331 937 -177 276 138 492 410 751 942 l83 170 0 -482 1 -483 475 0
475 0 0 6365 0 6365 -475 0 -475 0 -2 -2272z m-879 -3183 c104 -25 195 -80
292 -175 104 -103 176 -211 268 -402 173 -358 279 -794 338 -1393 22 -230 26
-1115 5 -1345 -64 -703 -171 -1141 -381 -1558 -181 -359 -415 -539 -676 -519
-127 10 -234 62 -342 166 -271 261 -494 844 -593 1551 -40 291 -52 467 -57
890 -7 565 23 965 102 1380 115 605 342 1108 583 1294 148 113 298 149 461
111z"/>
<path d="M15950 6751 l0 -6211 673 0 c823 0 1018 11 1327 71 222 44 456 138
579 232 353 271 676 813 933 1567 302 889 499 2117 548 3420 13 338 13 1212 0
1530 -55 1392 -224 2469 -550 3525 -34 110 -135 391 -179 495 -88 213 -112
266 -185 405 -376 723 -804 1036 -1576 1152 -86 13 -237 17 -837 20 l-733 4 0
-6210z m1602 3900 c260 -57 452 -163 645 -357 441 -443 725 -1411 813 -2774
19 -299 29 -904 20 -1260 -20 -773 -74 -1283 -196 -1830 -136 -618 -324 -1059
-544 -1281 -168 -169 -400 -267 -709 -298 -57 -6 -229 -11 -382 -11 l-279 0 0
3898 c0 2143 3 3908 7 3921 l6 23 261 -5 c215 -4 278 -9 358 -26z"/>
<path d="M29560 6750 l0 -6210 485 0 485 0 0 2795 0 2795 790 0 790 0 0 1135
0 1135 -790 0 -790 0 0 1130 0 1130 790 0 790 0 0 1150 0 1150 -1275 0 -1275
0 0 -6210z"/>
<path d="M2855 12100 c-385 -41 -684 -194 -975 -497 -219 -228 -330 -436 -394
-742 -48 -226 -45 -426 10 -653 70 -291 186 -496 403 -714 228 -230 433 -355
701 -428 157 -43 202 -57 198 -62 -3 -2 -72 -18 -154 -34 -366 -74 -628 -175
-898 -345 -286 -181 -558 -455 -737 -745 -140 -227 -251 -499 -300 -734 -28
-139 -37 -414 -44 -1436 -8 -942 -4 -1052 39 -1145 53 -115 120 -170 247 -199
69 -16 311 -36 447 -36 57 0 84 -4 87 -13 2 -6 16 -127 30 -267 119 -1208 207
-2089 215 -2160 5 -47 19 -175 30 -285 26 -245 77 -660 91 -735 45 -247 77
-307 189 -365 89 -47 104 -48 870 -52 761 -5 971 2 1050 33 69 27 133 72 159
111 76 116 122 464 280 2123 55 573 81 911 73 951 -1 8 -28 30 -60 48 -300
177 -534 505 -572 803 -43 342 -35 2633 11 2988 41 318 166 723 315 1022 35
70 64 129 64 131 0 11 -263 136 -365 174 -234 85 -454 143 -548 143 -49 0 -65
11 -44 28 7 6 77 30 156 52 301 86 463 181 690 403 51 51 116 118 142 150 190
226 307 525 328 832 23 358 -69 704 -257 970 -74 103 -293 323 -407 409 -163
122 -385 214 -620 256 -127 23 -335 33 -450 20z"/>
<path d="M11625 12104 c-16 -2 -70 -9 -120 -15 -192 -24 -434 -114 -590 -218
-227 -152 -448 -385 -557 -587 -91 -169 -148 -357 -175 -573 -26 -204 -2 -410
72 -636 73 -222 169 -378 350 -564 253 -261 452 -380 765 -459 85 -21 133 -42
132 -57 -1 -5 -34 -13 -74 -17 -125 -13 -393 -89 -585 -166 -44 -18 -292 -139
-301 -147 -2 -2 22 -54 54 -116 159 -318 278 -703 323 -1044 45 -340 54 -2559
12 -2965 -22 -207 -158 -468 -333 -637 -84 -82 -121 -110 -218 -169 l-82 -49
6 -155 c10 -265 162 -1839 232 -2405 51 -419 85 -529 184 -593 122 -80 195
-85 1133 -80 808 5 790 4 905 70 112 64 143 165 206 678 14 113 32 270 41 350
8 80 19 188 25 240 8 79 100 997 226 2265 14 143 30 263 36 266 5 3 90 9 188
13 385 15 487 51 577 207 48 84 48 82 46 1061 -2 980 -13 1392 -38 1526 -35
182 -136 457 -232 631 -292 528 -755 920 -1308 1109 -174 59 -405 112 -490
112 -47 0 -63 11 -42 28 7 6 69 27 137 46 322 91 473 178 709 409 234 230 332
388 415 667 84 281 80 621 -8 890 -87 265 -196 433 -421 648 -123 118 -253
217 -341 261 -147 73 -312 127 -474 155 -93 16 -326 28 -385 20z"/>
<path d="M22448 9940 c-212 -44 -383 -139 -561 -309 -203 -195 -361 -428 -531
-783 -200 -418 -375 -965 -485 -1523 -207 -1041 -255 -2426 -126 -3615 25
-228 37 -308 81 -570 146 -855 422 -1633 755 -2131 210 -314 477 -543 738
-634 138 -48 205 -59 381 -58 176 0 243 10 388 59 432 144 799 576 1086 1281
88 216 226 620 226 661 0 9 -17 35 -38 57 -21 22 -51 56 -67 76 -17 20 -93
107 -170 194 -77 87 -160 181 -185 210 -80 94 -331 375 -335 375 -1 0 -30 -56
-64 -125 -296 -614 -651 -859 -1057 -731 -384 122 -686 675 -823 1508 -25 149
-61 463 -61 531 l0 47 1530 0 1530 0 0 404 c0 1594 -189 2810 -586 3763 -287
690 -648 1118 -1068 1269 -180 64 -387 80 -558 44z m361 -1946 c255 -63 477
-317 656 -749 100 -240 169 -518 230 -922 l7 -43 -1031 0 c-632 0 -1031 4
-1031 9 0 26 76 373 115 527 120 465 229 705 426 933 179 208 411 298 628 245z"/>
<path d="M36540 9944 c-91 -19 -230 -91 -325 -167 -189 -152 -394 -443 -612
-868 l-58 -114 -3 468 -2 467 -475 0 -475 0 0 -4595 0 -4595 474 0 474 0 5
2458 c3 1593 9 2543 16 2702 30 651 119 1174 269 1576 102 272 244 468 389
537 60 28 78 32 153 32 75 0 92 -4 143 -30 253 -130 408 -559 461 -1275 35
-470 39 -761 43 -3387 l5 -2613 469 0 469 0 0 3183 c0 3524 -1 3590 -66 4132
-83 697 -221 1150 -479 1575 -66 108 -187 262 -254 322 -191 170 -410 238
-621 192z"/>
<path d="M45200 9940 c-270 -56 -503 -212 -720 -480 -414 -512 -752 -1422
-919 -2476 -154 -965 -179 -2222 -66 -3274 124 -1152 466 -2208 908 -2800 113
-152 234 -271 422 -415 33 -25 215 -112 284 -135 216 -72 525 -62 756 25 510
192 903 744 1219 1713 36 111 66 210 66 220 -1 9 -51 74 -113 143 -62 69 -222
251 -357 405 -135 153 -263 298 -286 322 l-40 44 -53 -108 c-266 -551 -553
-800 -901 -781 -295 16 -524 211 -719 611 -50 103 -59 124 -112 276 -69 199
-135 481 -173 745 -22 147 -46 379 -46 438 l0 47 1530 0 1530 0 0 383 c0 1472
-155 2593 -486 3526 -300 842 -709 1373 -1179 1530 -181 60 -382 76 -545 41z
m409 -1959 c185 -64 333 -212 488 -486 161 -284 291 -718 348 -1162 l7 -53
-1031 0 c-821 0 -1031 3 -1031 13 0 47 119 557 170 727 96 322 216 558 375
736 111 124 246 211 373 240 83 19 223 12 301 -15z"/>
<path d="M49488 9937 c-229 -78 -422 -354 -577 -827 -35 -108 -106 -382 -116
-453 -4 -27 -10 -46 -13 -43 -2 3 -4 239 -3 525 1 286 -1 536 -5 555 l-6 36
-404 0 -404 0 0 -4595 0 -4595 469 0 470 0 4 2578 c3 2209 6 2624 20 2907 45
889 103 1277 247 1639 51 127 121 225 182 255 86 41 151 19 265 -93 42 -42 79
-73 82 -71 4 5 45 269 110 715 17 113 39 264 50 335 28 187 57 376 97 645 19
129 37 243 40 254 5 13 -12 36 -64 86 -159 157 -289 199 -444 147z"/>
<path d="M6865 9773 c-284 -65 -519 -146 -725 -250 -441 -222 -811 -553 -1083
-968 -159 -243 -285 -539 -356 -840 -45 -186 -51 -237 -61 -507 -13 -340 -13
-2291 0 -2436 9 -97 15 -122 44 -180 56 -110 122 -158 251 -182 36 -7 241 -14
513 -17 l452 -5 5 -22 c2 -11 40 -464 85 -1006 228 -2762 226 -2749 384 -2838
116 -66 97 -64 896 -69 435 -3 782 -1 868 5 134 10 148 13 223 48 196 92 183
7 414 2789 47 567 87 1044 90 1062 l6 31 452 5 c464 5 532 11 617 48 56 25 84
50 126 116 71 110 68 45 72 1273 5 1585 -4 1729 -132 2112 -200 599 -587 1093
-1131 1444 -165 106 -440 234 -645 301 -128 41 -352 93 -401 93 l-47 0 -5
-1337 c-4 -890 -9 -1359 -16 -1401 -6 -34 -22 -84 -35 -111 -27 -53 -109 -132
-168 -162 -64 -32 -154 -51 -210 -44 -109 15 -261 120 -307 212 -12 24 -26 71
-32 105 -7 42 -12 510 -16 1401 l-5 1337 -51 -1 c-29 -1 -61 -3 -72 -6z"/>
<path d="M25030 9709 c0 -12 11 -82 25 -158 13 -75 38 -215 55 -311 54 -311
97 -558 160 -910 34 -190 74 -419 90 -510 16 -91 38 -219 50 -285 92 -522 224
-1268 245 -1391 14 -82 46 -259 70 -394 24 -135 64 -362 89 -505 40 -232 110
-628 152 -865 9 -47 24 -134 34 -195 20 -114 27 -155 130 -735 34 -190 70
-397 81 -460 11 -63 27 -153 35 -200 20 -112 45 -257 149 -845 47 -269 94
-537 105 -595 11 -58 47 -264 82 -457 l62 -353 307 0 c284 0 308 1 313 18 3 9
21 111 41 227 57 325 77 442 175 995 50 283 104 592 120 685 30 168 49 281 89
505 11 63 36 205 55 315 20 110 47 265 61 345 29 164 222 1259 235 1335 5 28
21 118 35 200 15 83 37 211 50 285 28 160 165 939 235 1335 55 308 83 472 134
765 19 107 49 276 66 375 17 99 47 268 66 375 19 107 41 231 49 275 8 44 51
287 95 540 83 480 99 568 107 598 4 16 -24 17 -481 17 l-485 0 -10 -52 c-6
-29 -19 -105 -30 -168 -26 -151 -43 -244 -97 -550 -25 -140 -54 -307 -65 -370
-11 -63 -27 -153 -35 -200 -8 -47 -26 -146 -39 -220 -168 -956 -207 -1177
-220 -1245 -8 -44 -24 -134 -35 -200 -12 -66 -32 -181 -45 -255 -22 -120 -115
-651 -180 -1020 -91 -524 -197 -1116 -200 -1118 -4 -4 -16 54 -59 303 -20 110
-81 454 -135 765 -55 311 -123 693 -150 850 -28 157 -55 310 -61 340 -10 54
-31 172 -71 400 -31 180 -152 862 -214 1210 -31 173 -65 367 -76 430 -11 63
-51 288 -89 500 -38 212 -77 433 -86 493 l-18 107 -483 0 -483 0 0 -21z"/>
<path d="M32770 5135 l0 -4595 475 0 475 0 0 4595 0 4595 -475 0 -475 0 0
-4595z"/>
</g>
</svg>
