<?xml version="1.0" standalone="no"?>
<!DOCTYPE svg PUBLIC "-//W3C//DTD SVG 20010904//EN"
 "http://www.w3.org/TR/2001/REC-SVG-20010904/DTD/svg10.dtd">
<svg version="1.0" xmlns="http://www.w3.org/2000/svg"
 width="1200.000000pt" height="1200.000000pt" viewBox="0 0 1200.000000 1200.000000"
 preserveAspectRatio="xMidYMid meet">

<g transform="translate(0.000000,1200.000000) scale(0.100000,-0.100000)"
fill="#000000" stroke="none">
<path d="M5740 10345 c-769 -95 -1432 -589 -1736 -1290 -362 -836 -179 -1783
468 -2425 327 -325 739 -529 1223 -606 135 -22 447 -24 580 -5 496 71 920 280
1262 621 787 782 858 2027 166 2903 -133 168 -352 363 -553 491 -253 161 -614
284 -929 316 -135 13 -349 11 -481 -5z m472 -540 c350 -46 659 -194 915 -439
414 -395 590 -957 477 -1516 -43 -207 -145 -442 -272 -620 -86 -122 -261 -296
-382 -382 -176 -124 -409 -227 -609 -268 -516 -105 -1030 30 -1424 375 -422
368 -627 948 -532 1501 60 349 228 662 488 911 361 344 848 503 1339 438z"/>
<path d="M5720 5444 c-19 -2 -87 -9 -150 -14 -578 -54 -1196 -250 -1715 -545
-1042 -592 -1788 -1574 -2079 -2734 -38 -150 -96 -452 -96 -497 0 -12 42 -14
272 -12 l271 3 24 129 c137 751 488 1431 1018 1975 708 726 1630 1131 2635
1158 917 24 1785 -271 2510 -855 122 -99 368 -339 479 -467 429 -497 726
-1105 850 -1736 17 -85 32 -165 33 -179 l3 -25 273 -3 c254 -2 272 -1 272 15
0 32 -40 253 -69 388 -181 821 -613 1592 -1223 2181 -699 673 -1571 1084
-2548 1200 -127 15 -672 28 -760 18z"/>
</g>
</svg>
